{"title":"SchoolBoy Q Ft. Kendrick Lamar - Collard Greens [Explicit] 1080p","uid":8832197,"size":186195920,"categoryP":"video","categoryS":"music_videos","magnet":"?xt=urn:btih:378406ddc43dbb41927116754dfdacf3d52e933b&amp;dn=SchoolBoy+Q+Ft.+Kendrick+Lamar+-+Collard+Greens+%5BExplicit%5D+1080p&amp;tr=udp%3A%2F%2Ftracker.openbittorrent.com%3A80&amp;tr=udp%3A%2F%2Fopen.demonii.com%3A1337&amp;tr=udp%3A%2F%2Ftracker.coppersurfer.tk%3A6969&amp;tr=udp%3A%2F%2Fexodus.desync.com%3A6969","seeders":9,"leechers":0,"uploader":"Sbyky","files":-1,"time":1377016412,"description":"[IMG]http://yuq.me/users/18/139/n1kLPyUHOs.png[/IMG]\n\nGeneral\nComplete name                            : SchoolBoy Q Ft. Kendrick Lamar - Collard Greens [Explicit] 1080p [Sbyky].mp4\nFormat                                   : MPEG-4\nFormat profile                           : Base Media / Version 2\nCodec ID                                 : mp42\nFile size                                : 178 MiB\nDuration                                 : 4mn 43s\nOverall bit rate mode                    : Variable\nOverall bit rate                         : 5 247 Kbps\nEncoded date                             : UTC 2013-08-06 21:17:17\nTagged date                              : UTC 2013-08-06 21:17:17\n\nVideo\nID                                       : 1\nFormat                                   : AVC\nFormat/Info                              : Advanced Video Codec\nFormat profile                           : &lt;a class=&quot;__cf_email__&quot; href=&quot;/cdn-cgi/l/email-protection&quot; data-cfemail=&quot;6f270608072f235b415f&quot;&gt;[email&amp;#160;protected]&lt;/a&gt;&lt;script cf-hash='f9e31' type=&quot;text/javascript&quot;&gt;\n/* &lt;![CDATA[ */!function(){try{var t=&quot;currentScript&quot;in document?document.currentScript:function(){for(var t=document.getElementsByTagName(&quot;script&quot;),e=t.length;e--;)if(t[e].getAttribute(&quot;cf-hash&quot;))return t[e]}();if(t&amp;&amp;t.previousSibling){var e,r,n,i,c=t.previousSibling,a=c.getAttribute(&quot;data-cfemail&quot;);if(a){for(e=&quot;&quot;,r=parseInt(a.substr(0,2),16),n=2;a.length-n;n+=2)i=parseInt(a.substr(n,2),16)^r,e+=String.fromCharCode(i);e=document.createTextNode(e),c.parentNode.replaceChild(e,c)}}}catch(u){}}();/* ]]&gt; */&lt;/script&gt;\nFormat settings, CABAC                   : Yes\nFormat settings, ReFrames                : 1 frame\nCodec ID                                 : avc1\nCodec ID/Info                            : Advanced Video Coding\nDuration                                 : 4mn 43s\nBit rate                                 : 5 053 Kbps\nMaximum bit rate                         : 15.1 Mbps\nWidth                                    : 1 920 pixels\nHeight                                   : 1 080 pixels\nDisplay aspect ratio                     : 16:9\nFrame rate mode                          : Constant\nFrame rate                               : 24.000 fps\nColor space                              : YUV\nChroma subsampling                       : 4:2:0\nBit depth                                : 8 bits\nScan type                                : Progressive\nBits/(Pixel*Frame)                       : 0.102\nStream size                              : 171 MiB (96%)\nTagged date                              : UTC 2013-08-06 21:18:28\n\nAudio\nID                                       : 2\nFormat                                   : AAC\nFormat/Info                              : Advanced Audio Codec\nFormat profile                           : LC\nCodec ID                                 : 40\nDuration                                 : 4mn 43s\nBit rate mode                            : Variable\nBit rate                                 : 192 Kbps\nMaximum bit rate                         : 203 Kbps\nChannel(s)                               : 2 channels\nChannel positions                        : Front: L R\nSampling rate                            : 44.1 KHz\nCompression mode                         : Lossy\nStream size                              : 6.50 MiB (4%)\nTitle                                    : IsoMedia File Produced by Google, 5-11-2011\nEncoded date                             : UTC 2013-08-06 21:17:48\nTagged date                              : UTC 2013-08-06 21:18:28\n\nShared By Sbyky\n[IMG]http://yuq.me/users/18/139/0aq32UMZvX.gif[/IMG]\n[IMG]http://yuq.me/users/18/139/bQg62viaEG.gif[/IMG]","torrent":{"xt":"urn:btih:378406ddc43dbb41927116754dfdacf3d52e933b","amp;dn":"SchoolBoy+Q+Ft.+Kendrick+Lamar+-+Collard+Greens+%5BExplicit%5D+1080p","amp;tr":["udp%3A%2F%2Ftracker.openbittorrent.com%3A80","udp%3A%2F%2Fopen.demonii.com%3A1337","udp%3A%2F%2Ftracker.coppersurfer.tk%3A6969","udp%3A%2F%2Fexodus.desync.com%3A6969"],"infoHash":"378406ddc43dbb41927116754dfdacf3d52e933b","infoHashBuffer":{"type":"Buffer","data":[55,132,6,221,196,61,187,65,146,113,22,117,77,253,172,243,213,46,147,59]},"announce":[],"urlList":[]}}